<svg xmlns="http://www.w3.org/2000/svg" xmlns:xlink="http://www.w3.org/1999/xlink" viewBox="0 0 300 300"><defs><style>.cls-1{fill:none;}.cls-2{fill:url(#linear-gradient);}.cls-3{fill:url(#linear-gradient-2);}</style><linearGradient id="linear-gradient" x1="25.25" y1="150.02" x2="275.25" y2="150.02" gradientUnits="userSpaceOnUse"><stop offset="0" stop-color="#39b54a"/><stop offset="1" stop-color="#006837"/></linearGradient><linearGradient id="linear-gradient-2" x1="25.25" y1="150.02" x2="203.86" y2="150.02" xlink:href="#linear-gradient"/></defs><title>Asset 5</title><g id="Layer_2" data-name="Layer 2"><g id="Layer_1-2" data-name="Layer 1"><rect class="cls-1" width="300" height="300"/><path class="cls-2" d="M269.23,167.58c-10.89-29.12-11-65.18-35.8-85.37l-.19-.15-.75-.6-.2-.15c-.7-.53-1.44-1-2.21-1.5A33.07,33.07,0,0,0,212.68,75c-11,0-20.64,5.1-25.63,12.63h0a6.83,6.83,0,0,1-2,4.89,5.51,5.51,0,0,1-3.87,1.63H119.67a5.5,5.5,0,0,1-3.86-1.63,6.78,6.78,0,0,1-2-4.29C109,80.4,99.15,75,87.82,75a33.07,33.07,0,0,0-17.4,4.79c-.77.47-1.51,1-2.21,1.5l-.2.15-.75.6-.19.15c-24.81,20.19-24.91,56.25-35.8,85.37-3.52,10.74-6.67,20.47-5.9,29.48s5.23,17.15,14.42,23.05,17.87,6.22,25.15,2.38,13.39-11.67,20-20.43c8.32-12.11,19.16-22.6,28.52-34.05v-1.3a6.78,6.78,0,0,1,2.45-5.3,5.49,5.49,0,0,1,3.41-1.22h61.52a5.46,5.46,0,0,1,3.4,1.22,6.76,6.76,0,0,1,2.46,5.3v.85c9.43,11.63,20.45,22.23,28.88,34.5,6.6,8.76,12.6,16.67,20,20.43s16,3.53,25.15-2.38,13.77-14.11,14.42-23.05S272.75,178.32,269.23,167.58Z"/><path class="cls-3" d="M84.93,202.06c8.32-12.11,19.16-22.6,28.52-34.05v-1.3a6.78,6.78,0,0,1,2.45-5.3,5.49,5.49,0,0,1,3.41-1.22h9l75.52-84a28.8,28.8,0,0,0-16.81,11.49h0a6.83,6.83,0,0,1-2,4.89,5.51,5.51,0,0,1-3.87,1.63H119.67a5.5,5.5,0,0,1-3.86-1.63,6.78,6.78,0,0,1-2-4.29C109,80.4,99.15,75,87.82,75a33.07,33.07,0,0,0-17.4,4.79c-.77.47-1.51,1-2.21,1.5l-.2.15-.75.6-.19.15c-24.81,20.19-24.91,56.25-35.8,85.37-3.52,10.74-6.67,20.47-5.9,29.48s5.23,17.15,14.42,23.05,17.87,6.22,25.15,2.38S78.33,210.82,84.93,202.06Z"/></g></g></svg>