<svg xmlns="http://www.w3.org/2000/svg" viewBox="0 0 360 190"><defs><style>.cls-1{fill:#39b54a;}</style></defs><title>Asset 1</title><g id="Layer_2" data-name="Layer 2"><g id="Layer_1-2" data-name="Layer 1"><path class="cls-1" d="M357.27,124.43c-5.18-23-16-37.39-21.5-47.92-6.58-9.88-13.87-26.27-31.65-42.18-13.33-12.18-33.46-24-50.23-22.13-3.23,1.83-6.55,3.53-9.92,5.12-7.72-1.4-15.86-2.54-24.33-3.42a64.62,64.62,0,0,0-80.08,0c-8.47.88-16.61,2-24.33,3.42-3.5-1.65-6.92-3.41-10.26-5.31C88.43,10.76,68.91,22.35,55.88,34.25,38.1,50.16,30.81,66.55,24.23,76.44,18.77,87,7.91,101.33,2.73,124.36c-5.1,21.6-4.53,51.86,14.8,61.36,18.07,11.63,45.13-3,61.69-18.14A117.56,117.56,0,0,0,98,146.14c8.58-20.24,29.16-36.24,55.2-42.88a65.54,65.54,0,0,0,53.24-.16c26.79,6.65,47.92,23.15,56.3,44.05a117.06,117.06,0,0,0,18.09,20.51c16.56,15.13,43.62,29.77,61.69,18.14C361.8,176.29,362.37,146,357.27,124.43ZM118.6,90.78H95.35v23H81.1v-23H58.6V76.68H81.1V54.42H95.35V76.68H118.6Zm130.34.89a7.42,7.42,0,1,1,7.5-7.42A7.47,7.47,0,0,1,248.94,91.67Zm22.62,22.11a7.42,7.42,0,1,1,7.5-7.42A7.46,7.46,0,0,1,271.56,113.78Zm0-44.52a7.42,7.42,0,1,1,7.5-7.42A7.47,7.47,0,0,1,271.56,69.26Zm22.38,22.41a7.42,7.42,0,1,1,7.5-7.42A7.47,7.47,0,0,1,293.94,91.67Z"/></g></g></svg>